HIERARCHY
ROOT Hips
{
    OFFSET 0.0 0.0 0.0
    CHANNELS 6 Xposition Yposition Zposition Zrotation Xrotation Yrotation
    JOINT LeftHipJoint
    {
        OFFSET 0.1 0.0 0.0
        CHANNELS 3 Zrotation Xrotation Yrotation
        JOINT LeftUpLeg
        {
            OFFSET 126.53122204583048 0.0 0.0
            CHANNELS 3 Zrotation Xrotation Yrotation
            JOINT LeftLeg
            {
                OFFSET 0.0 0.0 -401.167498721524
                CHANNELS 3 Zrotation Xrotation Yrotation
                JOINT LeftFoot
                {
                    OFFSET 0.0 0.0 -374.07632046953427
                    CHANNELS 3 Zrotation Xrotation Yrotation
                    End Site
                    {
                        OFFSET 0.0 -0.1 0.0
                    }
                }
            }
        }
    }
    JOINT LowerBack
    {
        OFFSET 0.0 0.0 0.1
        CHANNELS 3 Zrotation Xrotation Yrotation
        JOINT Spine
        {
            OFFSET 0.0 0.0 219.11303644832876
            CHANNELS 3 Zrotation Xrotation Yrotation
            JOINT Spine1
            {
                OFFSET 0.0 0.0 256.3158493932272
                CHANNELS 3 Zrotation Xrotation Yrotation
                JOINT LeftShoulder
                {
                    OFFSET 0.1 0.0 0.0
                    CHANNELS 3 Zrotation Xrotation Yrotation
                    JOINT LeftArm
                    {
                        OFFSET 145.9209276729332 0.0 0.0
                        CHANNELS 3 Zrotation Xrotation Yrotation
                        JOINT LeftForeArm
                        {
                            OFFSET 260.3379625126694 0.0 0.0
                            CHANNELS 3 Zrotation Xrotation Yrotation
                            JOINT LeftHand
                            {
                                OFFSET 229.4470706109986 0.0 0.0
                                CHANNELS 3 Zrotation Xrotation Yrotation
                                End Site
                                {
                                    OFFSET 0.1 0.0 0.0
                                }
                            }
                        }
                    }
                }
                JOINT Neck
                {
                    OFFSET 0.0 0.0 0.1
                    CHANNELS 3 Zrotation Xrotation Yrotation
                    JOINT Neck1
                    {
                        OFFSET 0.0 0.0 109.63636535727288
                        CHANNELS 3 Zrotation Xrotation Yrotation
                        End Site
                        {
                            OFFSET 0.0 0.0 116.1464922560724
                        }
                    }
                }
                JOINT RightShoulder
                {
                    OFFSET -0.1 0.0 0.0
                    CHANNELS 3 Zrotation Xrotation Yrotation
                    JOINT RightArm
                    {
                        OFFSET -145.9209276729332 0.0 0.0
                        CHANNELS 3 Zrotation Xrotation Yrotation
                        JOINT RightForeArm
                        {
                            OFFSET -260.3379625126694 0.0 0.0
                            CHANNELS 3 Zrotation Xrotation Yrotation
                            JOINT RightHand
                            {
                                OFFSET -229.4470706109986 0.0 0.0
                                CHANNELS 3 Zrotation Xrotation Yrotation
                                End Site
                                {
                                    OFFSET -0.1 0.0 0.0
                                }
                            }
                        }
                    }
                }
            }
        }
    }
    JOINT RightHipJoint
    {
        OFFSET -0.1 0.0 0.0
        CHANNELS 3 Zrotation Xrotation Yrotation
        JOINT RightUpLeg
        {
            OFFSET -126.53122204583048 0.0 0.0
            CHANNELS 3 Zrotation Xrotation Yrotation
            JOINT RightLeg
            {
                OFFSET 0.0 0.0 -401.167498721524
                CHANNELS 3 Zrotation Xrotation Yrotation
                JOINT RightFoot
                {
                    OFFSET 0.0 0.0 -374.07632046953427
                    CHANNELS 3 Zrotation Xrotation Yrotation
                    End Site
                    {
                        OFFSET 0.0 -0.1 0.0
                    }
                }
            }
        }
    }
}
MOTION
Frames: 11
Frame Time: 0.03333333333333333
0.0 0.0 779.1811229370658 30.83090109129394 -7.122672407781721 5.291634561300768 0.0 0.0 0.0 0.3083768342374584 -14.930333541390436 0.0454492815696203 -0.931101976313148 39.218686826366856 -0.3698059046023744 0.0 0.0 -2.3854160110976376e-15 0.0 0.0 0.0 0.007796810166084961 -0.39061812586971456 5.623308521577326 4.9838141892456544 -2.6939255380333836e-15 2.106966312044186e-15 -6.3611093629270335e-15 0.0 0.0 -19.903033283269224 19.94268197720523 74.21328064955888 -21.62202772303621 -1.383721132592395e-14 1.7352522031975003e-14 -6.212020862233431e-18 2.246151352538647e-34 -4.143417915109698e-15 -6.3611093629270335e-15 0.0 0.0 -17.508121011185924 -6.992817621063148 -11.369632418982695 -6.3611093629270335e-15 0.0 0.0 72.07262655388445 -63.44921850421955 33.82938458419316 85.61032999312182 -6.311369194182333e-15 -1.1495103143729403e-14 -7.454425034680117e-16 0.0 0.0 0.0 0.0 0.0 0.08704328056589336 -4.49902816500924 -4.414563539686076 -4.095951436892028 36.27434586965702 4.6465854904255535 0.0 0.0 7.951386703658792e-16
0.0 0.0 779.1811229370658 30.66199303845921 -7.148443324678077 5.46632045711062 0.0 0.0 0.0 0.2787767530263162 -14.753236650241252 -0.07906269267480079 -0.9433356402615916 39.03322385932397 -0.4389641937502561 0.0 0.0 0.0 0.0 0.0 0.0 0.0031054669008967507 -0.17010855672695763 5.595123550256958 5.110237925535286 2.2589776600870188e-15 -2.8865614344477704e-15 0.0 0.0 0.0 -20.536190746796507 20.294746705772276 74.45049909119686 -21.50557744492784 1.0371620673606425e-15 -1.8912859690258534e-14 1.565429257282825e-15 -2.4848083448933752e-17 -1.5840653198695253e-15 0.0 0.0 0.0 -17.880087392876703 -6.990425488037495 -11.484343104574723 0.0 0.0 0.0 72.74675498596197 -63.663209004037675 34.60323218089474 85.49721233654388 -4.671210830774134e-15 4.317812142923358e-15 -7.951386703658792e-16 0.0 0.0 0.0 0.0 0.0 0.0831325311760337 -4.699241306686877 -4.402366382483152 -4.106378915526982 36.8945810178648 4.442904192444942 0.0 0.0 -1.5902773407317584e-15
0.0 0.0 779.1811229370658 30.47065058507355 -7.077081992571166 5.642266739304893 -3.1805546814635168e-15 0.0 0.0 0.2546166029599685 -14.630685591204212 -0.24375147294596305 -0.9952707071411111 38.70008477970236 -0.4918888812444904 0.0 0.0 -7.951386703658792e-16 -3.1805546814635168e-15 0.0 0.0 0.0024568449975665464 -0.14612828452434853 5.468731853128822 5.230868852447776 1.4797692506035974e-15 -2.4554988355553967e-15 0.0 0.0 0.0 -21.53907365561225 20.83814534433089 74.82294688083262 -21.28230615233473 -2.581441361141246e-15 5.6654311323156815e-15 0.0 0.0 -7.578665451924786e-16 0.0 0.0 0.0 -18.11004774510279 -6.90202117297486 -11.518729377166887 0.0 0.0 0.0 73.63446341181789 -63.7364835233793 35.705584020856044 85.54485177051825 3.49661628530438e-16 -8.989169116206978e-15 1.5405811738338909e-15 -8.551943452472182e-32 -6.3611093629270335e-15 -3.1805546814635168e-15 0.0 0.0 0.08069626442355064 -4.946198583239541 -4.4003664646812 -4.111752271676018 37.364666160381056 4.209032008548979 0.0 0.0 -1.5902773407317584e-15
0.0 0.0 779.1811229370658 30.28622122657083 -7.081693267562393 5.857270993063217 3.1805546814635168e-15 0.0 0.0 0.21755003902281864 -14.420885135359997 -0.517963791273883 -1.0984029664699788 38.46273160901351 -0.43776286097674955 0.0 0.0 0.0 3.1805546814635168e-15 0.0 0.0 0.002139745649933017 -0.14690976149442792 5.348137234961567 5.329018739392198 1.4222192726659613e-15 -3.6481839097562705e-15 0.0 0.0 0.0 -22.53185158566103 21.251717899105312 75.13195139424127 -21.318714485280445 2.6485250260391364e-16 -1.4071628067853232e-15 5.963540027744093e-16 -1.5902773407317584e-15 -6.311413196029166e-15 0.0 0.0 0.0 -18.28703930353858 -6.8558239841739805 -11.595768521913381 0.0 0.0 0.0 74.03006549668622 -63.88229908280662 36.23673802268716 85.35910507573568 -7.014616981791528e-15 6.46826880508049e-15 7.951386703658792e-16 0.0 0.0 3.1805546814635168e-15 0.0 0.0 0.07020379572304054 -4.978852304052886 -4.547751339704462 -4.175863805476572 37.69807902539999 4.159283842781463 0.0 0.0 7.951386703658792e-16
0.0 0.0 779.1811229370658 30.161276666831736 -7.0410761454351585 6.058256283986237 0.0 0.0 0.0 0.19677046792007016 -14.294743387506966 -0.7587344857113038 -1.214460316123605 38.12749811283625 -0.3421433987766926 0.0 0.0 7.951386703658792e-16 0.0 0.0 0.0 0.003335812165523343 -0.251145901344902 5.252701693481724 5.353458578892475 -8.314046843779461e-16 -7.57137544318629e-16 0.0 0.0 3.975693351829396e-16 -23.054553080662128 21.5067349597141 75.33713631449596 -21.14649652399828 2.5790062277949058e-15 -1.4899812740155056e-14 0.0 0.0 4.969616689786745e-17 0.0 0.0 3.975693351829396e-16 -18.589700440433408 -6.689168796215503 -11.754447892858996 0.0 0.0 3.975693351829396e-16 74.13897960817785 -64.00226696605884 36.2507187522429 85.24373418547925 4.6807504564530196e-15 -4.3074688033150996e-15 -2.4848083448933725e-17 0.0 0.0 0.0 0.0 0.0 0.06450848606881979 -5.0251126101280015 -4.662645038659725 -4.250923920254606 37.97886976185589 4.0756597011606255 0.0 0.0 -7.951386703658792e-16
0.0 0.0 779.1811229370658 30.01472894516493 -6.994186936617232 6.251429382488168 0.0 1.5902773407317582e-15 0.0 0.23567140325141397 -14.34778267555706 -1.0401298863799142 -1.563426521718287 38.24566287056302 0.006723274465640846 0.0 0.0 1.1927080055488188e-15 0.0 1.5902773407317582e-15 0.0 0.008377444299487532 -0.527268722374495 5.1262210899860285 5.374390087351175 1.265953782228427e-15 1.5326106577362218e-15 0.0 0.0 3.975693351829396e-16 -23.612944591027457 21.91959901851934 75.63128360167262 -20.8344495199925 -3.814554661216847e-15 9.598545779103175e-16 3.975693351829396e-16 -6.465683053784412e-33 -1.8636062586700292e-15 0.0 0.0 3.975693351829396e-16 -18.76033452124266 -6.295695022674817 -11.861368554565498 0.0 0.0 3.975693351829396e-16 74.25275375261674 -64.2362686803024 36.3044089231958 85.2195713556832 7.022487940915699e-15 -6.4597225834945145e-15 2.4848083448933725e-17 0.0 0.0 0.0 1.5902773407317582e-15 0.0 0.08300377363070374 -5.358927091894908 -4.681410553803419 -4.486494200490697 38.61811743024872 4.0070307697353975 0.0 0.0 1.5902773407317584e-15
0.0 0.0 779.1811229370658 30.011397850081124 -7.222994455080487 6.362513132039479 0.0 0.0 -7.951386703658792e-16 0.23139393641322095 -14.164581869898404 -1.1798731631163317 -1.6766918875394348 38.368422972805746 0.16477613445659298 0.0 0.0 0.0 0.0 0.0 -7.951386703658792e-16 0.00828095539026532 -0.523893142294395 5.128745884001835 5.4893693195015025 1.3326454728965957e-16 2.7797927976826083e-15 0.0 0.0 3.975693351829396e-16 -23.88874052236402 22.447236328482386 75.69121722795838 -20.76190280490471 5.3357182386603156e-15 -2.1404305294260034e-14 -1.987846675914698e-16 1.987846675914698e-16 7.702905869169454e-16 0.0 0.0 3.975693351829396e-16 -18.967637672675682 -5.988886353837805 -11.849388769476555 0.0 0.0 3.975693351829396e-16 73.61379141932184 -64.27869599528536 35.69874970975898 85.23138501786916 1.601000092741247e-14 -6.086196240334124e-15 7.951386703658792e-16 0.0 0.0 0.0 0.0 -7.951386703658792e-16 0.07978841196403667 -5.185343160159246 -4.705581968900501 -4.588371274449238 39.148694446173 3.9659344960951612 0.0 0.0 -1.5902773407317584e-15
0.0 0.0 779.1811229370658 30.01470886674988 -7.409054307965337 6.446891176344265 -3.1805546814635168e-15 0.0 0.0 0.20828590991022156 -14.043783397490188 -1.2853647904427339 -1.6943471821554 38.429634389360906 0.2833160932926314 0.0 0.0 -3.975693351829396e-16 -3.1805546814635168e-15 0.0 0.0 0.008608877992058072 -0.600903108470257 5.156716147896877 5.5714897650041015 3.970995116718469e-16 -1.9322373244125682e-17 0.0 0.0 -3.975693351829396e-16 -24.537398950958092 22.82001739583518 75.84932812714938 -20.446625098254398 7.623205521524261e-15 -2.882922173760862e-14 -1.987846675914698e-16 -3.793200724886855e-33 2.1866313435061676e-15 0.0 0.0 -3.975693351829396e-16 -19.180801167993682 -5.575347640590481 -11.800740033356066 0.0 0.0 -3.975693351829396e-16 72.29776447806375 -63.98442658562705 34.5021133132544 85.10769532485675 6.644839367660622e-15 2.534906346768071e-15 1.6151254241806921e-15 -8.965747167914385e-32 -6.3611093629270335e-15 -3.1805546814635168e-15 0.0 0.0 0.06879606282542554 -4.96631886453593 -4.750373347145104 -4.626407700880202 39.58541678490598 3.8976255326564875 0.0 0.0 -7.951386703658792e-16
0.0 0.0 779.1811229370658 30.135380432127565 -7.663625416986188 6.457300699700652 -3.1805546814635168e-15 1.1034765745125397e-32 -3.975693351829396e-16 0.16783498124735172 -13.729134407886438 -1.3285877839840967 -1.600421220428658 38.2968780619984 0.3433643285551363 0.0 0.0 3.975693351829396e-16 -3.1805546814635168e-15 1.1034765745125397e-32 -3.975693351829396e-16 0.005483107519956925 -0.4657755638029374 5.263948232566569 5.558442802264756 -2.189838645761155e-15 4.086680055902636e-15 0.0 0.0 -3.975693351829396e-16 -25.438642230290657 23.20931178825065 76.04719200103376 -20.1219528265642 -9.089595685364155e-16 -6.255803178194907e-15 3.975693351829396e-16 -1.637973040292051e-33 -4.721135855297407e-16 0.0 0.0 -3.975693351829396e-16 -19.282209238529077 -5.522349041207094 -11.99057804141388 0.0 0.0 -3.975693351829396e-16 71.02709947189543 -63.74117430896564 33.25195233418864 84.97097972607057 1.6023790244053256e-14 -6.049798392193646e-15 -7.951386703658792e-16 0.0 0.0 -3.1805546814635168e-15 1.1034765745125397e-32 -3.975693351829396e-16 0.052814286239979524 -4.698675275361312 -4.772721046948892 -4.590671282937149 40.009628488632494 3.8485102253699766 0.0 0.0 0.0
0.0 0.0 779.1811229370658 30.201846422651393 -7.813026623996444 6.467871283236543 0.0 0.0 0.0 0.1720258772889568 -13.432569251138737 -1.3175013786844307 -1.607805132690115 38.12653315247112 0.3070932110251645 0.0 0.0 -7.951386703658792e-16 0.0 0.0 0.0 0.005290423137528286 -0.42853534701510854 5.304917820130691 5.520069175958844 1.889819805422191e-15 -2.0812616166460813e-15 0.0 0.0 0.0 -25.868496045919432 23.144512065346213 76.04610405851028 -19.70650819060878 -8.037486105123753e-17 1.2079077043175613e-14 -1.987846675914698e-16 2.155227684594804e-33 -1.2424041724466863e-15 0.0 0.0 0.0 -19.357421486221938 -5.407672596505361 -12.11925577138162 0.0 0.0 0.0 70.15558758461447 -63.414300150015954 32.3557764038306 84.80939634801781 2.348521724014238e-15 -2.144848198267812e-15 -1.5902773407317584e-15 0.0 0.0 0.0 0.0 0.0 0.05202331803174051 -4.421002312925685 -4.823281730937437 -4.602104071398916 39.64945928846711 3.9277592291837577 0.0 0.0 1.5902773407317584e-15
0.0 0.0 779.1811229370658 30.121886840827965 -7.998309190201608 6.424766749203536 0.0 0.0 0.0 0.20196487437285998 -13.037189193094962 -1.2972867706908775 -1.720593983352013 38.24575417727897 0.4541238344893493 0.0 0.0 0.0 0.0 0.0 0.0 0.006817259913128915 -0.4547776558907345 5.320084896809177 5.4328617445355265 1.1305179018938534e-16 2.3827355788538393e-15 0.0 0.0 0.0 -26.725182630723104 23.198825342317388 76.19180881655225 -19.50412849933759 -5.027802529232607e-15 1.517096782107166e-14 0.0 0.0 -2.4848083448933726e-15 0.0 0.0 0.0 -19.30250500838817 -5.202984391266791 -12.158030113765133 0.0 0.0 0.0 69.4348399809765 -63.14917562054693 31.372853001818715 85.21022378306822 -1.0577294481676118e-14 -1.6199079618106243e-14 0.0 0.0 0.0 0.0 0.0 0.0 0.05934304425480638 -4.130004222420736 -4.702146008945485 -4.61486321280395 39.57131569546229 3.7435125558394113 0.0 0.0 7.951386703658792e-16
